<svg width="420" height="120" viewBox="0 0 420 120" fill="none" xmlns="http://www.w3.org/2000/svg">
  <rect width="420" height="120" rx="24" fill="#FFFFFF"/>
  <circle cx="54" cy="60" r="40" fill="#D96A2B"/>
  <circle cx="54" cy="48" r="16" fill="#F9D1BE"/>
  <path d="M24 94C28.8 74.8 39.8 65.2 54 65.2C68.2 65.2 79.2 74.8 84 94" fill="#F9D1BE"/>
  <path d="M112 32H124.8V55.2L145.2 32H160.8L138.8 56L161.6 88H146.2L130.4 65.6L124.8 71.6V88H112V32Z" fill="#353535"/>
  <path d="M168.2 32H180.6V88H168.2V32Z" fill="#353535"/>
  <path d="M193.8 32H206.2V55.6L225.8 32H241L220 56.2L242.6 88H227.4L211.8 65.8L206.2 72V88H193.8V32Z" fill="#353535"/>
  <path d="M248.5 32H261V76.8H288.6V88H248.5V32Z" fill="#353535"/>
  <path d="M294.4 60C294.4 43.4 307.1 30.8 324.2 30.8C341.3 30.8 354.1 43.4 354.1 60C354.1 76.6 341.3 89.2 324.2 89.2C307.1 89.2 294.4 76.6 294.4 60ZM306.9 60C306.9 70.1 314.1 78 324.2 78C334.4 78 341.6 70.1 341.6 60C341.6 49.9 334.4 42 324.2 42C314.1 42 306.9 49.9 306.9 60Z" fill="#353535"/>
  <path d="M360.8 60C360.8 43.4 373.4 30.8 390.2 30.8C400.1 30.8 407.4 34.5 412.7 40.5L404.6 48.3C401 44.5 396.7 42 390.2 42C380.7 42 373.3 49.9 373.3 60C373.3 70.1 380.7 78 390.2 78C397.4 78 401.4 75.1 405 71.2L413 78.1C407.1 84.5 399.9 89.2 389.8 89.2C373.8 89.2 360.8 76.9 360.8 60Z" fill="#353535"/>
</svg>
