<svg xmlns="http://www.w3.org/2000/svg" width="1200" height="700" viewBox="0 0 1200 700">
  <defs>
    <linearGradient id="g" x1="0" y1="0" x2="1" y2="1">
      <stop offset="0" stop-color="#0b1220"/>
      <stop offset="0.45" stop-color="#1b1a2e"/>
      <stop offset="1" stop-color="#a33e00"/>
    </linearGradient>
    <radialGradient id="r1" cx="35%" cy="35%" r="60%">
      <stop offset="0" stop-color="rgba(255,102,0,0.55)"/>
      <stop offset="1" stop-color="rgba(255,102,0,0)"/>
    </radialGradient>
    <radialGradient id="r2" cx="70%" cy="55%" r="65%">
      <stop offset="0" stop-color="rgba(255,255,255,0.18)"/>
      <stop offset="1" stop-color="rgba(255,255,255,0)"/>
    </radialGradient>
    <linearGradient id="grid" x1="0" y1="0" x2="0" y2="1">
      <stop offset="0" stop-color="rgba(255,255,255,0.10)"/>
      <stop offset="1" stop-color="rgba(255,255,255,0.00)"/>
    </linearGradient>
  </defs>
  <rect width="1200" height="700" fill="url(#g)"/>
  <rect width="1200" height="700" fill="url(#r1)"/>
  <rect width="1200" height="700" fill="url(#r2)"/>
  <g opacity="0.22">
    <path d="M0 520 C 220 430, 360 620, 620 520 S 1040 520, 1200 430" fill="none" stroke="rgba(255,255,255,0.35)" stroke-width="3"/>
    <path d="M0 560 C 240 470, 380 650, 640 550 S 1040 540, 1200 470" fill="none" stroke="rgba(255,255,255,0.25)" stroke-width="2"/>
  </g>
  <g opacity="0.20">
    <rect x="0" y="420" width="1200" height="280" fill="url(#grid)"/>
    <g stroke="rgba(255,255,255,0.18)" stroke-width="1">
      <path d="M0 490H1200"/>
      <path d="M0 550H1200"/>
      <path d="M0 610H1200"/>
      <path d="M180 420V700"/>
      <path d="M360 420V700"/>
      <path d="M540 420V700"/>
      <path d="M720 420V700"/>
      <path d="M900 420V700"/>
      <path d="M1080 420V700"/>
    </g>
  </g>
</svg>
