<svg xmlns="http://www.w3.org/2000/svg" width="1200" height="700" viewBox="0 0 1200 700">
  <defs>
    <linearGradient id="bg" x1="0" y1="0" x2="1" y2="1">
      <stop offset="0" stop-color="#0f172a"/>
      <stop offset="1" stop-color="#1f2937"/>
    </linearGradient>
    <linearGradient id="accent" x1="0" y1="0" x2="1" y2="0">
      <stop offset="0" stop-color="#a33e00"/>
      <stop offset="1" stop-color="#ff6600"/>
    </linearGradient>
  </defs>
  <rect width="1200" height="700" fill="url(#bg)"/>
  <g opacity="0.25" stroke="rgba(255,255,255,0.22)" stroke-width="2" fill="none">
    <path d="M120 120C260 170 340 120 460 170C600 240 680 200 780 260C920 350 1010 300 1080 360"/>
    <path d="M160 560C300 490 430 520 540 450C660 360 760 380 860 320C970 270 1030 250 1120 200"/>
    <path d="M240 220C330 290 390 320 460 360C520 395 590 430 650 420C740 404 820 350 900 300"/>
  </g>
  <g opacity="0.20" stroke="rgba(255,255,255,0.16)" stroke-width="1">
    <path d="M0 140H1200"/>
    <path d="M0 280H1200"/>
    <path d="M0 420H1200"/>
    <path d="M0 560H1200"/>
    <path d="M200 0V700"/>
    <path d="M400 0V700"/>
    <path d="M600 0V700"/>
    <path d="M800 0V700"/>
    <path d="M1000 0V700"/>
  </g>
  <g transform="translate(850 190)">
    <circle cx="0" cy="0" r="78" fill="rgba(255,102,0,0.22)"/>
    <circle cx="0" cy="0" r="44" fill="rgba(255,102,0,0.35)"/>
    <path d="M0-92C-36-92-66-62-66-26C-66 23-8 92 0 102C8 92 66 23 66-26C66-62 36-92 0-92Z" fill="url(#accent)"/>
    <circle cx="0" cy="-33" r="20" fill="rgba(255,255,255,0.92)"/>
  </g>
  <rect x="64" y="64" width="1072" height="572" rx="44" fill="none" stroke="rgba(255,255,255,0.20)" stroke-width="4"/>
</svg>
